<?xml version="1.0" standalone="no"?>
<!DOCTYPE svg PUBLIC "-//W3C//DTD SVG 20010904//EN"
 "http://www.w3.org/TR/2001/REC-SVG-20010904/DTD/svg10.dtd">
<svg version="1.0" xmlns="http://www.w3.org/2000/svg"
 width="325" height="325" viewBox="0 0 3254.000000 3254.000000"
 preserveAspectRatio="xMidYMid meet">
<metadata>
Created by potrace 1.16, written by Peter Selinger 2001-2019
</metadata>
<g transform="translate(0.000000,3254.000000) scale(0.100000,-0.100000)"
fill="#fff" stroke="none">
<path d="M15635 32533 c-1323 -62 -2418 -227 -3580 -538 -3025 -810 -5756
-2481 -7862 -4812 -2387 -2641 -3836 -5969 -4138 -9498 -37 -442 -47 -665 -52
-1242 -5 -598 2 -894 33 -1328 177 -2495 910 -4878 2161 -7025 510 -875 1089
-1685 1754 -2455 480 -556 1080 -1158 1634 -1640 1811 -1576 3931 -2727 6225
-3379 229 -65 613 -164 655 -170 17 -2 131 -27 254 -55 280 -65 458 -101 715
-145 225 -39 218 -38 411 -66 77 -11 154 -22 170 -25 17 -2 57 -7 90 -11 33
-3 97 -12 143 -18 46 -7 85 -9 87 -6 2 3 -23 109 -56 236 -640 2441 -1135
5527 -1309 8169 -16 253 -37 552 -45 665 -75 1032 -82 1922 -19 2425 16 128
54 301 79 361 13 33 14 66 5 258 -37 787 -115 1918 -199 2886 l-28 325 -96
193 c-143 288 -250 569 -322 847 -19 72 -39 145 -46 163 l-11 33 -54 -51 c-95
-90 -260 -148 -390 -137 -161 13 -339 153 -503 397 -112 167 -158 267 -306
680 -218 607 -360 1132 -421 1555 -24 166 -25 491 -1 594 38 166 110 267 235
329 73 36 80 37 181 37 88 0 116 -4 161 -23 l56 -23 33 -127 c143 -543 324
-1002 500 -1263 65 -96 84 -110 76 -52 -6 44 -75 1015 -105 1483 -62 974 -71
1265 -46 1420 41 244 192 585 396 893 122 184 147 243 194 457 61 278 93 608
106 1100 6 231 14 369 24 416 67 325 272 667 606 1008 454 464 1082 874 1730
1129 532 209 881 269 1385 238 850 -54 1678 -289 2267 -644 296 -178 491 -340
715 -590 489 -549 815 -1088 899 -1487 8 -41 19 -170 24 -285 14 -325 61 -617
151 -935 77 -274 187 -543 275 -677 22 -32 80 -102 131 -155 154 -163 194
-282 213 -634 12 -230 2 -545 -40 -1235 -26 -435 -44 -776 -65 -1236 -4 -73
-3 -133 2 -133 16 0 389 1098 524 1544 l54 179 45 20 c69 31 191 35 277 9 187
-57 279 -193 330 -492 23 -130 22 -499 -1 -710 -53 -493 -177 -1103 -337
-1664 -85 -298 -261 -587 -431 -706 -86 -60 -147 -80 -248 -80 -180 0 -346 84
-420 212 -28 50 -28 50 -34 22 -37 -184 -110 -656 -117 -751 -27 -397 -161
-827 -368 -1188 l-69 -120 -12 -720 c-6 -396 -10 -1028 -8 -1405 l3 -685 173
-575 c109 -363 181 -623 197 -705 59 -320 93 -672 81 -849 -4 -55 -18 -170
-31 -255 -37 -237 -47 -423 -35 -661 11 -245 18 -298 75 -590 151 -778 246
-1689 295 -2815 41 -958 41 -2364 0 -3545 -22 -641 -67 -1554 -79 -1596 l-8
-31 121 34 c3406 956 6451 3046 8592 5898 1870 2491 2979 5441 3209 8535 55
748 59 1592 9 2325 -239 3563 -1616 6897 -3959 9590 -482 554 -1084 1154
-1640 1634 -1916 1654 -4187 2841 -6610 3455 -1090 276 -2164 433 -3315 486
-188 9 -1181 11 -1345 3z"/>
<path d="M17815 22941 c-294 -48 -450 -208 -471 -485 -9 -113 11 -182 71 -241
106 -106 328 -165 572 -151 265 15 596 18 705 7 528 -55 996 -265 1362 -612
109 -104 247 -270 308 -371 22 -38 43 -68 46 -68 10 0 -8 280 -23 355 -70 339
-331 704 -682 957 -392 282 -923 498 -1448 588 -131 23 -361 34 -440 21z"/>
<path d="M14714 22880 c-305 -32 -766 -158 -1100 -300 -260 -111 -528 -269
-720 -423 -113 -92 -279 -268 -351 -374 -155 -225 -223 -426 -238 -703 -3 -52
-8 -123 -11 -157 -2 -35 -1 -63 3 -63 5 0 31 35 60 78 118 177 311 387 483
525 304 245 687 429 1040 501 256 52 333 55 965 46 213 -4 236 -2 309 18 154
43 245 101 288 186 45 88 30 275 -32 402 -59 120 -193 217 -345 249 -90 18
-250 26 -351 15z"/>
<path d="M16105 7539 c-286 -12 -607 -38 -688 -54 -56 -12 -77 -21 -95 -43
-38 -46 -314 -448 -431 -629 l-112 -172 143 -173 c618 -745 1054 -1330 1176
-1580 25 -52 46 -114 55 -164 29 -153 87 -233 177 -242 28 -2 49 -7 47 -11
-28 -52 -77 -171 -116 -280 -96 -268 -322 -1031 -396 -1336 -132 -545 -193
-1327 -167 -2159 12 -377 29 -676 39 -686 2 -3 181 -7 396 -9 1104 -10 2182
89 3270 299 117 23 219 45 225 49 18 11 -90 420 -228 866 -185 596 -451 1292
-628 1639 -111 220 -400 634 -792 1136 -134 171 -138 178 -164 268 -45 157
-105 272 -181 345 -32 31 -35 37 -18 37 11 0 29 10 40 23 18 19 21 39 26 172
11 309 102 617 298 1006 122 242 317 556 466 751 l43 57 -138 173 c-208 261
-382 464 -526 617 l-61 65 -140 12 c-361 32 -1052 43 -1520 23z"/>
</g>
</svg>
